<svg width="300" height="35" viewBox="0 0 300 35" fill="none" xmlns="http://www.w3.org/2000/svg">
<path d="M24.5935 24.7001C24.5935 25.0191 24.5365 25.3154 24.4226 25.5888C24.3086 25.8623 24.1491 26.1016 23.944 26.3067C23.7389 26.5004 23.4997 26.6542 23.2262 26.7681C22.9527 26.8821 22.6622 26.939 22.3546 26.939H12.3393C11.3936 26.939 10.4365 26.8365 9.46801 26.6314C8.49952 26.4263 7.55952 26.113 6.64801 25.6914C5.74788 25.2584 4.89904 24.7115 4.10146 24.0507C3.30388 23.3898 2.60316 22.6093 1.99928 21.7092C1.40679 20.7977 0.939639 19.7608 0.59782 18.5987C0.256002 17.4251 0.0850925 16.1205 0.0850925 14.6848L0.0850925 2.43064H4.52873V14.6848C4.52873 15.9382 4.69964 16.9978 5.04146 17.8637C5.39467 18.7297 5.83904 19.4532 6.37455 20.0343C6.91007 20.6154 7.49686 21.0711 8.13492 21.4016C8.77298 21.732 9.37686 21.977 9.94655 22.1365C10.5276 22.296 11.0347 22.3985 11.4676 22.4441C11.912 22.4783 12.2026 22.4954 12.3393 22.4954H20.1498V2.43064H24.5935L24.5935 24.7001ZM34.2498 26.939H29.8062L29.8062 2.43064H34.2498V26.939ZM58.5531 2.43064L43.0859 26.939H38.3175L53.8019 2.43064H58.5531ZM86.531 24.7001C86.531 25.0191 86.474 25.3154 86.3601 25.5888C86.2461 25.8623 86.0866 26.1016 85.8815 26.3067C85.6764 26.5004 85.4372 26.6542 85.1637 26.7681C84.8902 26.8821 84.5997 26.939 84.2921 26.939H74.2768C73.3311 26.939 72.374 26.8365 71.4055 26.6314C70.437 26.4263 69.497 26.113 68.5855 25.6914C67.6854 25.2584 66.8365 24.7115 66.039 24.0507C65.2414 23.3898 64.5407 22.6093 63.9368 21.7092C63.3443 20.7977 62.8771 19.7608 62.5353 18.5987C62.1935 17.4251 62.0226 16.1205 62.0226 14.6848V2.43064H66.4662V14.6848C66.4662 15.9382 66.6371 16.9978 66.979 17.8637C67.3322 18.7297 67.7765 19.4532 68.3121 20.0343C68.8476 20.6154 69.4344 21.0711 70.0724 21.4016C70.7105 21.732 71.3144 21.977 71.8841 22.1365C72.4651 22.296 72.9722 22.3985 73.4051 22.4441C73.8495 22.4783 74.1401 22.4954 74.2768 22.4954H82.0873V2.43064H86.531V24.7001ZM102.904 11.1812L110.39 2.43064H116.457L105.912 14.719L116.389 26.939H110.356L102.904 18.2568L95.4866 26.939H89.4364L99.8961 14.719L89.4023 2.43064H95.4183L102.904 11.1812ZM154.929 16.6845C154.929 18.1771 154.667 19.5501 154.143 20.8034C153.63 22.0567 152.918 23.1391 152.006 24.0507C151.095 24.9508 150.012 25.6572 148.759 26.1699C147.506 26.6827 146.144 26.939 144.674 26.939H132.676C132.357 26.939 132.061 26.8821 131.788 26.7681C131.514 26.6542 131.275 26.5004 131.07 26.3067C130.876 26.1016 130.722 25.8623 130.608 25.5888C130.495 25.3154 130.438 25.0191 130.438 24.7001V4.66955C130.438 4.36192 130.495 4.07137 130.608 3.79792C130.722 3.52446 130.876 3.28519 131.07 3.0801C131.275 2.87501 131.514 2.71549 131.788 2.60155C132.061 2.48761 132.357 2.43064 132.676 2.43064L144.674 2.43064C146.144 2.43064 147.506 2.68701 148.759 3.19973C150.012 3.71246 151.095 4.42458 152.006 5.3361C152.918 6.23622 153.63 7.31865 154.143 8.58338C154.667 9.83671 154.929 11.204 154.929 12.6852V16.6845ZM150.485 12.6852C150.485 11.8193 150.343 11.0274 150.058 10.3096C149.784 9.59174 149.391 8.98216 148.879 8.48083C148.366 7.9681 147.751 7.57501 147.033 7.30156C146.326 7.01671 145.54 6.87428 144.674 6.87428L134.881 6.87428V22.4954H144.674C145.54 22.4954 146.326 22.3587 147.033 22.0852C147.751 21.8004 148.366 21.4073 148.879 20.9059C149.391 20.3932 149.784 19.7836 150.058 19.0772C150.343 18.3594 150.485 17.5618 150.485 16.6845V12.6852ZM178.668 14.5823C178.668 15.1976 178.56 15.8641 178.343 16.5819C178.127 17.2884 177.774 17.9492 177.284 18.5645C176.805 19.1684 176.173 19.6754 175.387 20.0856C174.612 20.4957 173.666 20.7008 172.55 20.7008H164.534V16.4794H172.55C173.153 16.4794 173.621 16.2971 173.951 15.9325C174.281 15.5565 174.447 15.095 174.447 14.5481C174.447 13.967 174.259 13.5113 173.883 13.1808C173.518 12.8504 173.074 12.6852 172.55 12.6852H164.534C163.93 12.6852 163.463 12.8732 163.132 13.2492C162.802 13.6138 162.637 14.0696 162.637 14.6165V20.8205C162.637 21.413 162.819 21.8744 163.184 22.2048C163.56 22.5353 164.021 22.7005 164.568 22.7005H172.55V26.939H164.534C163.919 26.939 163.252 26.8308 162.534 26.6143C161.828 26.3978 161.167 26.0503 160.552 25.5718C159.948 25.0818 159.441 24.4494 159.031 23.6747C158.62 22.8885 158.415 21.9371 158.415 20.8205V14.5823C158.415 13.967 158.524 13.3062 158.74 12.5997C158.957 11.8819 159.304 11.2211 159.783 10.6172C160.273 10.0019 160.905 9.48919 161.68 9.07901C162.466 8.66883 163.417 8.46374 164.534 8.46374H172.55C173.165 8.46374 173.826 8.57198 174.532 8.78847C175.25 9.00495 175.911 9.35816 176.515 9.8481C177.13 10.3266 177.643 10.959 178.053 11.7452C178.463 12.52 178.668 13.4657 178.668 14.5823ZM199.519 20.7008C199.519 21.4642 199.422 22.1536 199.229 22.7688C199.035 23.3727 198.778 23.9082 198.459 24.3754C198.14 24.8311 197.77 25.2242 197.349 25.5547C196.927 25.8737 196.483 26.1358 196.015 26.3408C195.56 26.5459 195.093 26.6998 194.614 26.8023C194.147 26.8935 193.702 26.939 193.281 26.939L181.249 26.939V22.4954H193.247C193.851 22.4954 194.306 22.3416 194.614 22.0339C194.922 21.7263 195.075 21.2819 195.075 20.7008C195.018 19.5159 194.42 18.9234 193.281 18.9234H186.393C185.413 18.9234 184.582 18.7525 183.898 18.4107C183.214 18.0688 182.656 17.6416 182.223 17.1288C181.801 16.6161 181.494 16.0635 181.3 15.471C181.118 14.8785 181.027 14.3259 181.027 13.8132C181.027 12.8219 181.203 11.9902 181.557 11.3179C181.91 10.6343 182.354 10.0817 182.89 9.6601C183.425 9.23853 184.006 8.93659 184.633 8.75428C185.26 8.56059 185.846 8.46374 186.393 8.46374H197.314V12.9074H186.427C186.2 12.9074 186.017 12.9359 185.881 12.9928C185.755 13.0384 185.658 13.1068 185.59 13.1979C185.533 13.2777 185.499 13.3688 185.487 13.4714C185.476 13.5625 185.47 13.6537 185.47 13.7448C185.482 13.9271 185.516 14.0696 185.573 14.1721C185.63 14.2747 185.698 14.3487 185.778 14.3943C185.869 14.4399 185.966 14.4683 186.069 14.4797C186.182 14.4797 186.291 14.4797 186.393 14.4797H193.281C194.42 14.4797 195.389 14.6848 196.186 15.095C196.984 15.5052 197.628 16.0236 198.118 16.6503C198.608 17.2656 198.961 17.9378 199.177 18.667C199.405 19.3962 199.519 20.0742 199.519 20.7008ZM207.159 4.66955L202.715 4.66955V0.653188L207.159 0.653188V4.66955ZM207.159 26.939H202.715V8.46374H207.159V26.939ZM231.53 28.7165C231.53 29.4799 231.434 30.1635 231.24 30.7674C231.046 31.3827 230.79 31.9182 230.471 32.3739C230.152 32.8411 229.781 33.2342 229.36 33.5532C228.938 33.8836 228.494 34.1514 228.027 34.3565C227.571 34.5616 227.104 34.7097 226.625 34.8009C226.158 34.9034 225.714 34.9547 225.292 34.9547H217.277V30.511H225.292C225.896 30.511 226.346 30.3572 226.642 30.0496C226.939 29.7419 227.087 29.2976 227.087 28.7165V14.6848C227.087 14.1037 226.939 13.6651 226.642 13.3688C226.346 13.0612 225.896 12.9074 225.292 12.9074L217.277 12.9074C216.73 12.9074 216.297 13.0783 215.978 13.4201C215.659 13.7505 215.499 14.1721 215.499 14.6848V20.7008C215.499 21.2819 215.653 21.7263 215.961 22.0339C216.268 22.3416 216.718 22.4954 217.311 22.4954L225.292 22.4954V26.939H217.277C216.855 26.939 216.411 26.8935 215.943 26.8023C215.476 26.6998 215.009 26.5459 214.542 26.3408C214.086 26.1358 213.648 25.8737 213.226 25.5547C212.804 25.2242 212.434 24.8311 212.115 24.3754C211.796 23.9082 211.54 23.3727 211.346 22.7688C211.152 22.1536 211.055 21.4642 211.055 20.7008V14.6848C211.055 14.2633 211.101 13.8189 211.192 13.3517C211.295 12.8846 211.449 12.4231 211.654 11.9674C211.859 11.5002 212.121 11.0559 212.44 10.6343C212.77 10.2127 213.163 9.84241 213.619 9.52338C214.086 9.20435 214.622 8.94798 215.226 8.75428C215.83 8.56059 216.513 8.46374 217.277 8.46374L225.292 8.46374C225.714 8.46374 226.158 8.51501 226.625 8.61756C227.104 8.70871 227.571 8.85683 228.027 9.06192C228.494 9.26701 228.938 9.53477 229.36 9.86519C229.781 10.1842 230.152 10.5773 230.471 11.0445C230.79 11.5002 231.046 12.03 231.24 12.6339C231.434 13.2378 231.53 13.9214 231.53 14.6848V28.7165ZM256.073 26.939H251.629V16.6845C251.629 16.1034 251.527 15.585 251.322 15.1292C251.128 14.662 250.86 14.2633 250.518 13.9328C250.177 13.6024 249.772 13.3517 249.305 13.1808C248.849 12.9985 248.354 12.9074 247.818 12.9074H240.042V26.939H235.598V10.6685C235.598 10.3608 235.655 10.076 235.769 9.81392C235.883 9.54047 236.042 9.30689 236.247 9.11319C236.453 8.9081 236.692 8.74859 236.965 8.63465C237.239 8.52071 237.529 8.46374 237.837 8.46374H247.852C248.41 8.46374 248.997 8.52641 249.613 8.65174C250.239 8.77707 250.854 8.98216 251.458 9.26701C252.074 9.54047 252.655 9.89368 253.202 10.3266C253.76 10.7482 254.25 11.2667 254.671 11.8819C255.104 12.4858 255.446 13.1865 255.697 13.9841C255.948 14.7817 256.073 15.6818 256.073 16.6845V26.939ZM279.846 14.5823C279.846 15.1976 279.738 15.8641 279.522 16.5819C279.305 17.2884 278.952 17.9492 278.462 18.5645C277.983 19.1684 277.351 19.6754 276.565 20.0856C275.79 20.4957 274.844 20.7008 273.728 20.7008H265.712V16.4794H273.728C274.332 16.4794 274.799 16.2971 275.129 15.9325C275.46 15.5565 275.625 15.095 275.625 14.5481C275.625 13.967 275.437 13.5113 275.061 13.1808C274.696 12.8504 274.252 12.6852 273.728 12.6852H265.712C265.108 12.6852 264.641 12.8732 264.311 13.2492C263.98 13.6138 263.815 14.0696 263.815 14.6165V20.8205C263.815 21.413 263.997 21.8744 264.362 22.2048C264.738 22.5353 265.199 22.7005 265.746 22.7005H273.728V26.939H265.712C265.097 26.939 264.43 26.8308 263.713 26.6143C263.006 26.3978 262.345 26.0503 261.73 25.5718C261.126 25.0818 260.619 24.4494 260.209 23.6747C259.799 22.8885 259.594 21.9371 259.594 20.8205V14.5823C259.594 13.967 259.702 13.3062 259.918 12.5997C260.135 11.8819 260.482 11.2211 260.961 10.6172C261.451 10.0019 262.083 9.48919 262.858 9.07901C263.644 8.66883 264.596 8.46374 265.712 8.46374H273.728C274.343 8.46374 275.004 8.57198 275.71 8.78847C276.428 9.00495 277.089 9.35816 277.693 9.8481C278.308 10.3266 278.821 10.959 279.231 11.7452C279.641 12.52 279.846 13.4657 279.846 14.5823ZM299.005 12.9074H289.007C288.403 12.9074 287.948 13.0612 287.64 13.3688C287.332 13.6651 287.178 14.1037 287.178 14.6848V26.939H282.735V14.6848C282.735 13.9214 282.832 13.2378 283.025 12.6339C283.219 12.03 283.475 11.5002 283.794 11.0445C284.125 10.5773 284.501 10.1842 284.922 9.86519C285.344 9.53477 285.783 9.26701 286.238 9.06192C286.706 8.85683 287.173 8.70871 287.64 8.61756C288.118 8.51501 288.563 8.46374 288.973 8.46374H299.005V12.9074Z" fill="white" fill-opacity="0.65"/>
</svg>
